<?xml version="1.0" encoding="utf-8"?>
<!-- Generator: Adobe Illustrator 23.0.0, SVG Export Plug-In . SVG Version: 6.00 Build 0)  -->
<svg version="1.1" id="Capa_1" xmlns="http://www.w3.org/2000/svg" xmlns:xlink="http://www.w3.org/1999/xlink" x="0px" y="0px"
	 viewBox="0 0 975.39 246.56" style="enable-background:new 0 0 975.39 246.56;" xml:space="preserve">
<g>
	<path style="fill:#CD693E;" d="M116.38,127.65c0-2.77,0-5.22,0-8.06c-1.33,0-2.55,0.01-3.76,0c-2.87-0.02-3.52-0.58-3.54-3.51
		c-0.06-6.75-0.02-13.49-0.02-20.24c0-2.42,0.06-4.83,0-7.25c-0.05-2.32,1.02-3.39,3.31-3.32c0.58,0.02,1.17-0.01,1.75-0.02
		c0.33-0.01,0.71,0.08,0.99-0.05c2.89-1.35,0.87-3.91,1.39-5.86c0.29-1.11-0.04-2.02-1.61-2.16c-5.84-0.54-5.83-0.59-5.83-6.51
		c0.01-7.91,0-15.83,0-23.74c0-3.45,0.65-4.36,4.06-4.03c4.52,0.43,7.39-0.52,9.6-5.2c3.17-6.72,10.42-9.44,17.95-8.38
		c8.64,1.22,16.48,4.63,23.93,8.89c27.21,15.56,54.37,31.19,81.48,46.93c9.05,5.26,18.02,10.69,26.72,16.51
		c3.81,2.55,7.27,5.91,10.14,9.5c6.82,8.53,6.06,17.61-1.35,25.67c-6.63,7.21-14.73,12.38-23.1,17.21
		c-29.95,17.31-59.88,34.62-89.85,51.9c-6.99,4.03-14.14,7.77-21.97,9.97c-4.64,1.3-9.34,1.86-14.05,0.64
		c-5.37-1.39-9.01-4.98-11.07-9.98c-1.04-2.51-2.42-3.14-5.02-3.11c-7.49,0.11-7.52,1.2-7.48-7.33c0.04-7.58,0-15.16,0.02-22.74
		c0.01-3.77,0.47-4.16,4.11-4.3c1.08-0.04,2.99-0.3,3.06-0.72c0.33-1.84,0.17-3.78,0.06-5.68c-0.01-0.21-0.79-0.49-1.23-0.54
		c-0.82-0.09-1.66-0.03-2.5-0.04c-2.78-0.04-3.44-0.57-3.48-3.35c-0.08-5.66-0.04-11.33-0.05-16.99c0-3.5-0.03-7,0.02-10.5
		c0.04-3.03,0.66-3.6,3.72-3.62C113.94,127.64,115.08,127.65,116.38,127.65z M143.32,119.93c-0.09,0-0.18,0-0.28,0
		c0,11.58-0.04,23.15,0.02,34.73c0.03,6.08,0.2,12.14,2.22,18c2.3,6.65,6.41,9.56,13.37,9.03c4.99-0.38,9.55-2.23,13.83-4.69
		c21.34-12.24,42.72-24.41,63.9-36.91c5.24-3.09,10.2-6.9,14.59-11.12c5.69-5.46,5.68-12.02,0.12-17.65
		c-3.7-3.73-7.97-7.1-12.49-9.78c-19.89-11.76-39.96-23.22-59.98-34.76c-5.84-3.37-11.79-6.46-18.5-7.88
		c-6.13-1.3-11.6,0.97-13.93,6.78c-1.46,3.64-2.66,7.67-2.74,11.54C143.13,91.45,143.32,105.69,143.32,119.93z"/>
	<path style="fill:#CD693E;" d="M40.3,60.03c0-4.66,0.06-9.33-0.03-13.99c-0.04-2.11,0.87-3.14,2.9-3.19c2.25-0.05,4.5-0.05,6.75,0
		c1.8,0.04,2.79,1.05,2.79,2.84c0.02,9.5,0.02,18.99,0,28.49c0,2-0.97,3.09-3.09,3.04c-2.16-0.05-4.33,0-6.5-0.01
		c-1.93-0.01-2.88-0.93-2.86-2.94c0.05-4.75,0.01-9.5,0.01-14.24C40.29,60.03,40.3,60.03,40.3,60.03z"/>
	<path style="fill:#CD693E;" d="M40.29,186.21c0-4.57-0.02-9.14,0.01-13.71c0.02-2.75,0.61-3.32,3.41-3.37
		c1.99-0.04,3.99,0.01,5.98,0c1.93-0.01,3.01,0.94,3.02,2.85c0.03,9.56,0.04,19.12,0,28.67c-0.01,1.85-1.01,2.91-2.99,2.88
		c-2.16-0.03-4.32,0-6.48-0.01c-2.06,0-2.99-1.01-2.96-3.1C40.33,195.68,40.29,190.95,40.29,186.21z"/>
	<path style="fill:#D88E50;" d="M57.49,144.86c0-4.58-0.03-9.15,0.01-13.73c0.02-2.71,0.71-3.37,3.42-3.4c2-0.02,3.99,0,5.99,0
		c1.85,0,2.81,0.97,2.81,2.76c0.04,9.57,0.05,19.13,0.04,28.7c0,1.89-1.25,2.65-2.93,2.72c-2.08,0.09-4.16,0.08-6.24,0.01
		c-2.09-0.07-3.14-1.16-3.12-3.33C57.52,154.01,57.49,149.43,57.49,144.86z"/>
	<path style="fill:#D88E50;" d="M57.49,186.04c0-4.5,0.04-9-0.01-13.49c-0.02-2.19,0.97-3.25,3.14-3.25c2.08,0,4.16-0.02,6.25,0
		c1.77,0.02,2.87,0.83,2.87,2.7c0.02,9.49,0.04,18.99,0.01,28.48c-0.01,2.03-1.14,2.99-3.2,2.94c-1.91-0.05-3.83-0.03-5.75,0.01
		c-2.34,0.05-3.31-1.18-3.31-3.4C57.49,195.37,57.48,190.71,57.49,186.04z"/>
	<path style="fill:#D88E50;" d="M57.48,60.12c0-4.57,0.04-9.15-0.01-13.72c-0.02-2.3,1-3.38,3.3-3.32c1.99,0.05,3.99,0.04,5.99,0.01
		c1.95-0.03,2.99,0.91,2.99,2.84c0.01,9.48-0.01,18.96-0.02,28.44c0,1.88-1.05,2.67-2.86,2.65c-2.08-0.02-4.16-0.01-6.24,0.01
		c-2.18,0.03-3.18-1.02-3.16-3.2C57.51,69.27,57.48,64.7,57.48,60.12z"/>
	<path style="fill:#8BB346;" d="M104.14,102.62c0,4.08,0,8.16,0,12.25c0,3.27-0.71,4.07-3.96,4.49c-0.33,0.04-0.67,0.02-1,0.03
		c-6.25,0.14-6.47,0.16-6.79-5.98c-0.32-5.97-0.13-11.96-0.18-17.94c-0.02-2.08-0.15-4.15-0.11-6.23c0.05-2.64,0.88-3.43,3.46-3.47
		c1.75-0.03,3.5,0.03,5.25,0c2.32-0.05,3.34,1.13,3.34,3.37C104.13,93.62,104.14,98.12,104.14,102.62z"/>
	<path style="fill:#8BB346;" d="M104.14,144.82c0,4.5-0.05,9,0.02,13.49c0.04,2.25-1.05,3.21-3.16,3.24
		c-1.92,0.03-3.83-0.02-5.75,0.02c-2.14,0.04-3-1.09-3-3.1c0.01-9.23,0.01-18.46,0.02-27.69c0-1.94,1.04-2.91,2.95-2.93
		c1.81-0.03,3.62-0.03,5.43,0c2.55,0.04,3.44,0.9,3.47,3.48C104.17,135.83,104.14,140.33,104.14,144.82z"/>
	<path style="fill:#8BB346;" d="M104.14,186.36c0,4.33,0.02,8.65-0.01,12.98c-0.02,2.92-0.76,3.66-3.71,3.72
		c-1.41,0.03-2.83,0-4.24-0.02c-3.15-0.03-4.01-0.61-4.04-3.69c-0.09-7.64,0.03-15.28,0.08-22.92c0.01-1.41-0.22-2.89,0.14-4.21
		c0.28-1.01,1.26-2.53,2.02-2.58c2.44-0.17,4.93,0.25,7.4,0.42c1.97,0.13,2.4,1.39,2.39,3.08
		C104.13,177.54,104.14,181.95,104.14,186.36z"/>
	<path style="fill:#EAC031;" d="M86.85,144.79c0,4.5,0.03,9-0.01,13.49c-0.03,2.82-0.87,3.56-3.62,3.45
		c-1.83-0.07-3.66-0.11-5.49-0.16c-1.81-0.04-2.79-0.88-2.79-2.76c0-9.41,0-18.82,0-28.23c0-1.88,1.07-2.7,2.83-2.75
		c1.58-0.04,3.16-0.03,4.75-0.03c3.95,0.01,4.35,0.4,4.35,4.24c0,4.25,0,8.5,0,12.74C86.86,144.79,86.86,144.79,86.85,144.79z"/>
	<path style="fill:#EAC031;" d="M86.86,102.44c0,4.25,0.02,8.5,0,12.74c-0.02,3.72-0.52,4.22-4.15,4.23
		c-1.58,0.01-3.16-0.02-4.75-0.01c-1.95,0.01-3.01-0.99-3.01-2.88c-0.03-9.41-0.01-18.82,0.01-28.23c0-1.73,0.91-2.59,2.66-2.58
		c2.08,0.02,4.17,0.09,6.24-0.02c2.2-0.11,3,0.97,2.99,2.99c-0.02,4.58-0.01,9.16-0.01,13.74
		C86.85,102.44,86.85,102.44,86.86,102.44z"/>
	<path style="fill:#EAC031;" d="M74.91,60.11c0-4.33-0.02-8.66,0.01-13c0.02-3.19,0.67-3.88,3.76-3.92c9.45-0.11,8.1-0.26,8.18,7.97
		c0.06,7,0.02,14,0,20.99c-0.01,4.45-0.34,4.76-4.89,4.79c-1.25,0.01-2.5-0.05-3.75,0c-2.35,0.09-3.32-1.07-3.3-3.34
		c0.03-4.5,0.01-9,0.01-13.5C74.92,60.11,74.92,60.11,74.91,60.11z"/>
	<path style="fill:#EAC031;" d="M74.93,186.35c0-4.5,0.05-9-0.02-13.5c-0.04-2.32,0.9-3.37,3.27-3.26c1.91,0.09,3.83-0.01,5.74-0.08
		c1.84-0.07,2.89,0.73,2.89,2.61c0.02,9.33,0.03,18.66,0.01,27.99c0,1.99-0.99,3.1-3.1,3.05c-1.99-0.05-3.98,0-5.98-0.04
		c-1.96-0.03-2.83-1.09-2.82-3.02C74.95,195.52,74.93,190.93,74.93,186.35z"/>
	<path style="fill:#8BB346;" d="M104.14,60.37c0,4.16,0.01,8.32,0,12.48c-0.01,3.33-0.33,3.66-3.76,3.72
		c-1.58,0.03-3.16,0.03-4.74,0c-2.91-0.06-3.4-0.6-3.37-3.6c0.05-5.73,0.1-11.46,0.11-17.19c0-3.24-0.2-6.49-0.04-9.73
		c0.05-0.88,1.07-2.43,1.68-2.44c2.78-0.07,5.59,0.21,8.37,0.52c1.34,0.15,1.81,1.1,1.79,2.51
		C104.09,51.22,104.14,55.8,104.14,60.37z"/>
</g>
<g>
	<path style="fill:#CD693E;" d="M309.9,160.66c6.9,8.98,14.75,13.46,23.54,13.46c4.98,0,8.73-1.35,11.24-4.04
		c2.51-2.69,3.77-6.15,3.77-10.38c0-3.65-1-7.09-2.99-10.34c-1.99-3.24-7.26-7.64-15.79-13.2c-13.4-8.92-20.1-21.89-20.1-38.92
		c0-12.51,3.04-22.22,9.11-29.14c6.07-6.92,14.11-10.38,24.12-10.38c8.38,0,15.42,1.71,21.1,5.13v26.93
		c-5.76-6.14-12.5-9.21-20.22-9.21c-4.5,0-8.1,1.29-10.8,3.87c-2.7,2.58-4.04,6.04-4.04,10.38c0,3.47,0.92,6.67,2.77,9.6
		c1.85,2.92,6.41,6.88,13.68,11.86c8.53,5.73,14.39,11.79,17.58,18.15c3.19,6.37,4.79,13.96,4.79,22.76
		c0,12.91-2.92,22.76-8.75,29.53c-5.83,6.78-14.12,10.16-24.87,10.16c-9.82,0-17.87-2.49-24.15-7.47V160.66z"/>
	<path style="fill:#CD693E;" d="M413.2,193.4c-2.7,2.32-6.78,3.47-12.24,3.47c-13,0-19.5-10.71-19.5-32.14V119.4h-10.08V98.46h10.08
		V77.35l17.78-7.99v29.1h13.96v20.93h-13.96v40.48c0,10.25,2.58,15.38,7.75,15.38c1.99,0,4.06-0.93,6.2-2.78V193.4z"/>
	<path style="fill:#CD693E;" d="M463.16,123.91c-2.18-1.97-4.82-2.95-7.92-2.95c-4.06,0-7.28,2.43-9.66,7.3
		c-2.38,4.86-3.57,11.55-3.57,20.07v46.21h-17.89V98.46H442v18.07h0.22c2.96-13.15,8.33-19.72,16.12-19.72
		c2.11,0,3.71,0.38,4.82,1.13V123.91z"/>
	<path style="fill:#CD693E;" d="M526.02,154.4H485.7c0.63,14.88,6.35,22.32,17.17,22.32c6.76,0,12.72-2.61,17.89-7.82v20.59
		c-5.58,4.92-12.89,7.38-21.93,7.38c-9.75,0-17.33-4.31-22.74-12.94c-5.41-8.63-8.11-20.64-8.11-36.05c0-15.35,2.88-27.81,8.64-37.4
		c5.76-9.58,13-14.38,21.71-14.38c8.68,0,15.46,4.13,20.35,12.38s7.34,19.59,7.34,34.01V154.4z M509.35,136.86
		c0-14.36-3.71-21.54-11.13-21.54c-3.07,0-5.78,1.97-8.14,5.91c-2.36,3.94-3.84,9.15-4.43,15.64H509.35z"/>
	<path style="fill:#CD693E;" d="M539.14,104.28c2.77-2.43,6.47-4.4,11.11-5.91c4.63-1.51,8.59-2.26,11.88-2.26
		c17.13,0,25.7,13.46,25.7,40.39v58.03h-17v-13.99h-0.22c-4.17,10.89-10.28,16.33-18.33,16.33c-5.8,0-10.44-2.59-13.93-7.77
		s-5.23-12.23-5.23-21.15c0-18.42,7-29.13,20.99-32.14l16.84-3.56c0-11.18-3.71-16.76-11.13-16.76c-7.31,0-14.2,3.47-20.66,10.42
		V104.28z M559.36,151.01c-6.46,1.33-9.69,5.91-9.69,13.72c0,3.59,0.78,6.49,2.35,8.69c1.57,2.2,3.68,3.3,6.34,3.3
		c3.66,0,6.66-2.03,9.03-6.08c2.36-4.05,3.54-9.09,3.54-15.11v-6.86L559.36,151.01z"/>
	<path style="fill:#CD693E;" d="M699.27,194.53h-17.83v-54.81c0-14.71-3.42-22.06-10.25-22.06c-3.18,0-5.82,2.23-7.92,6.69
		c-2.1,4.46-3.16,9.9-3.16,16.33v53.86h-17.83v-55.51c0-14.25-3.38-21.37-10.14-21.37c-3.36,0-6.05,2.13-8.06,6.38
		c-2.01,4.26-3.02,9.89-3.02,16.9v53.6h-17.89V98.46h17.89v15.03h0.22c2.14-5.5,4.99-9.77,8.53-12.81
		c3.54-3.04,7.27-4.56,11.19-4.56c8.6,0,14.49,6.05,17.67,18.15c4.73-12.1,11.59-18.15,20.6-18.15c13.33,0,20,12.91,20,38.74V194.53
		z"/>
	<path style="fill:#CD693E;" d="M790.76,194.53h-19.94l-6.42-30.84h-31.18l-6.31,30.84h-19.83l31.4-134.55h21.49L790.76,194.53z
		 M760.08,141.55l-9.75-46.65c-0.63-2.95-1.07-6.86-1.33-11.73h-0.5c-0.22,3.94-0.72,7.73-1.5,11.38l-9.8,46.99H760.08z"/>
	<path style="fill:#CD693E;" d="M819.9,147.63v46.91h-18.28V59.98h29.52c21.34,0,32.01,14.19,32.01,42.56
		c0,13.78-3.22,24.83-9.67,33.14c-6.44,8.31-14.5,12.29-24.18,11.94H819.9z M819.9,82.22v43.43h7.92c10.74,0,16.12-7.33,16.12-21.98
		c0-14.3-5.32-21.46-15.95-21.46H819.9z"/>
	<path style="fill:#CD693E;" d="M894.45,147.63v46.91h-18.28V59.98h29.52c21.34,0,32.01,14.19,32.01,42.56
		c0,13.78-3.22,24.83-9.67,33.14c-6.44,8.31-14.5,12.29-24.18,11.94H894.45z M894.45,82.22v43.43h7.92
		c10.74,0,16.12-7.33,16.12-21.98c0-14.3-5.32-21.46-15.95-21.46H894.45z"/>
</g>
<g>
</g>
<g>
</g>
<g>
</g>
<g>
</g>
<g>
</g>
<g>
</g>
</svg>
